<svg width="24" height="25" viewBox="0 0 24 25" fill="none" xmlns="http://www.w3.org/2000/svg">
<path d="M17 9.5C17 13.37 13.64 16.5 9.5 16.5L8.57001 17.62L8.02 18.28C7.55 18.84 6.65 18.72 6.34 18.05L5 15.1C3.18 13.82 2 11.79 2 9.5C2 5.63 5.36 2.5 9.5 2.5C12.52 2.5 15.13 4.17001 16.3 6.57001C16.75 7.46001 17 8.45 17 9.5Z" stroke="#55C6FF" stroke-width="1.5" stroke-linecap="round" stroke-linejoin="round"/>
<path d="M22.0003 13.36C22.0003 15.65 20.8203 17.6801 19.0003 18.9601L17.6603 21.91C17.3503 22.58 16.4503 22.7101 15.9803 22.1401L14.5003 20.36C12.0803 20.36 9.92031 19.2901 8.57031 17.6201L9.50031 16.5001C13.6403 16.5001 17.0003 13.3701 17.0003 9.50006C17.0003 8.45006 16.7503 7.46007 16.3003 6.57007C19.5703 7.32007 22.0003 10.08 22.0003 13.36Z" stroke="#55C6FF" stroke-width="1.5" stroke-linecap="round" stroke-linejoin="round"/>
<path d="M7 9.5H12" stroke="#55C6FF" stroke-width="1.5" stroke-linecap="round" stroke-linejoin="round"/>
</svg>
