<svg width="24" height="25" viewBox="0 0 24 25" fill="none" xmlns="http://www.w3.org/2000/svg">
<path d="M9.16 11.37C9.06 11.36 8.94 11.36 8.83 11.37C6.45 11.29 4.56 9.34 4.56 6.94C4.56 4.49 6.54 2.5 9 2.5C11.45 2.5 13.44 4.49 13.44 6.94C13.43 9.34 11.54 11.29 9.16 11.37Z" stroke="#55C6FF" stroke-width="1.5" stroke-linecap="round" stroke-linejoin="round"/>
<path d="M16.41 4.5C18.35 4.5 19.91 6.07 19.91 8C19.91 9.89 18.41 11.43 16.54 11.5C16.46 11.49 16.37 11.49 16.28 11.5" stroke="#55C6FF" stroke-width="1.5" stroke-linecap="round" stroke-linejoin="round"/>
<path d="M4.16 15.06C1.74 16.68 1.74 19.32 4.16 20.93C6.91 22.77 11.42 22.77 14.17 20.93C16.59 19.31 16.59 16.67 14.17 15.06C11.43 13.23 6.92 13.23 4.16 15.06Z" stroke="#55C6FF" stroke-width="1.5" stroke-linecap="round" stroke-linejoin="round"/>
<path d="M18.34 20.5C19.06 20.35 19.74 20.06 20.3 19.63C21.86 18.46 21.86 16.53 20.3 15.36C19.75 14.94 19.08 14.66 18.37 14.5" stroke="#55C6FF" stroke-width="1.5" stroke-linecap="round" stroke-linejoin="round"/>
</svg>
