<svg width="24" height="25" viewBox="0 0 24 25" fill="none" xmlns="http://www.w3.org/2000/svg">
<path d="M9.16055 11.37C9.06055 11.36 8.94055 11.36 8.83055 11.37C6.45055 11.29 4.56055 9.34 4.56055 6.94C4.56055 4.49 6.54055 2.5 9.00055 2.5C11.4505 2.5 13.4405 4.49 13.4405 6.94C13.4305 9.34 11.5405 11.29 9.16055 11.37Z" stroke="#0A3C55" stroke-width="1.5" stroke-linecap="round" stroke-linejoin="round"/>
<path d="M16.4093 4.5C18.3493 4.5 19.9093 6.07 19.9093 8C19.9093 9.89 18.4093 11.43 16.5393 11.5C16.4593 11.49 16.3693 11.49 16.2793 11.5" stroke="#0A3C55" stroke-width="1.5" stroke-linecap="round" stroke-linejoin="round"/>
<path d="M4.1607 15.06C1.7407 16.68 1.7407 19.32 4.1607 20.93C6.9107 22.77 11.4207 22.77 14.1707 20.93C16.5907 19.31 16.5907 16.67 14.1707 15.06C11.4307 13.23 6.9207 13.23 4.1607 15.06Z" stroke="#171717" stroke-width="1.5" stroke-linecap="round" stroke-linejoin="round"/>
<path d="M18.3398 20.5C19.0598 20.35 19.7398 20.06 20.2998 19.63C21.8598 18.46 21.8598 16.53 20.2998 15.36C19.7498 14.94 19.0798 14.66 18.3698 14.5" stroke="#171717" stroke-width="1.5" stroke-linecap="round" stroke-linejoin="round"/>
</svg>
