<svg width="18" height="18" viewBox="0 0 18 18" fill="none" xmlns="http://www.w3.org/2000/svg">
<path d="M15.621 6.00751L10.7085 2.07751C9.74851 1.31251 8.24851 1.30501 7.29601 2.07001L2.38351 6.00751C1.67851 6.57001 1.25101 7.69501 1.40101 8.58001L2.34601 14.235C2.56351 15.5025 3.74101 16.5 5.02351 16.5H12.9735C14.241 16.5 15.441 15.48 15.6585 14.2275L16.6035 8.57251C16.7385 7.69501 16.311 6.57001 15.621 6.00751ZM9.56101 13.5C9.56101 13.8075 9.30601 14.0625 8.99851 14.0625C8.69101 14.0625 8.43601 13.8075 8.43601 13.5V11.25C8.43601 10.9425 8.69101 10.6875 8.99851 10.6875C9.30601 10.6875 9.56101 10.9425 9.56101 11.25V13.5Z" fill="white"/>
</svg>
