<svg width="24" height="25" viewBox="0 0 24 25" fill="none" xmlns="http://www.w3.org/2000/svg">
<path d="M11.74 18.25H17.66C17.57 18.33 17.48 18.4 17.39 18.48L13.12 21.68C11.71 22.73 9.41001 22.73 7.99001 21.68L3.71001 18.48C2.77001 17.78 2 16.23 2 15.06V7.64998C2 6.42998 2.93001 5.07998 4.07001 4.64998L9.05 2.77999C9.87 2.46999 11.23 2.46999 12.05 2.77999L17.02 4.64998C17.97 5.00998 18.78 6.00999 19.03 7.02999H11.73C11.51 7.02999 11.31 7.04 11.12 7.04C9.27 7.15 8.78999 7.81998 8.78999 9.92998V15.36C8.79999 17.66 9.39001 18.25 11.74 18.25Z" stroke="#55C6FF" stroke-width="1.5" stroke-linecap="round" stroke-linejoin="round"/>
<path d="M8.80005 11.72H22" stroke="#55C6FF" stroke-width="1.5" stroke-miterlimit="10" stroke-linecap="round" stroke-linejoin="round"/>
<path d="M22 9.92001V15.47C21.98 17.69 21.37 18.24 19.06 18.24H11.7401C9.39005 18.24 8.80005 17.65 8.80005 15.34V9.91C8.80005 7.81 9.28005 7.13999 11.1301 7.01999C11.3201 7.01999 11.5201 7.01001 11.7401 7.01001H19.06C21.41 7.02001 22 7.60001 22 9.92001Z" stroke="#55C6FF" stroke-width="1.5" stroke-linecap="round" stroke-linejoin="round"/>
<path d="M11.3201 15.76H12.6501" stroke="#55C6FF" stroke-width="1.5" stroke-miterlimit="10" stroke-linecap="round" stroke-linejoin="round"/>
<path d="M14.75 15.76H18.02" stroke="#55C6FF" stroke-width="1.5" stroke-miterlimit="10" stroke-linecap="round" stroke-linejoin="round"/>
</svg>
