<svg width="24" height="25" viewBox="0 0 24 25" fill="none" xmlns="http://www.w3.org/2000/svg">
<path d="M16.6992 19.48H7.29922C6.87922 19.48 6.40922 19.15 6.26922 18.75L2.12922 7.16999C1.53922 5.50999 2.22922 4.99999 3.64922 6.01999L7.54922 8.80999C8.19922 9.25999 8.93922 9.02999 9.21922 8.29999L10.9792 3.60999C11.5392 2.10999 12.4692 2.10999 13.0292 3.60999L14.7892 8.29999C15.0692 9.02999 15.8092 9.25999 16.4492 8.80999L20.1092 6.19999C21.6692 5.07999 22.4192 5.64999 21.7792 7.45999L17.7392 18.77C17.5892 19.15 17.1192 19.48 16.6992 19.48Z" stroke="#55C6FF" stroke-width="1.5" stroke-linecap="round" stroke-linejoin="round"/>
<path d="M6.5 22.5H17.5" stroke="#55C6FF" stroke-width="1.5" stroke-linecap="round" stroke-linejoin="round"/>
<path d="M9.5 14.5H14.5" stroke="#55C6FF" stroke-width="1.5" stroke-linecap="round" stroke-linejoin="round"/>
</svg>
