<svg width="24" height="25" viewBox="0 0 24 25" fill="none" xmlns="http://www.w3.org/2000/svg">
<path d="M12 6.06006H22" stroke="#55C6FF" stroke-width="1.5" stroke-miterlimit="10" stroke-linecap="round" stroke-linejoin="round"/>
<path d="M14.22 2.5H19.78C21.56 2.5 22 2.94 22 4.7V8.81C22 10.57 21.56 11.01 19.78 11.01H14.22C12.44 11.01 12 10.57 12 8.81V4.7C12 2.94 12.44 2.5 14.22 2.5Z" stroke="#55C6FF" stroke-width="1.5" stroke-linecap="round" stroke-linejoin="round"/>
<path d="M2 17.5601H12" stroke="#55C6FF" stroke-width="1.5" stroke-miterlimit="10" stroke-linecap="round" stroke-linejoin="round"/>
<path d="M4.22 14H9.78C11.56 14 12 14.44 12 16.2V20.31C12 22.07 11.56 22.51 9.78 22.51H4.22C2.44 22.51 2 22.07 2 20.31V16.2C2 14.44 2.44 14 4.22 14Z" stroke="#55C6FF" stroke-width="1.5" stroke-linecap="round" stroke-linejoin="round"/>
<path d="M22 15.5C22 19.37 18.87 22.5 15 22.5L16.05 20.75" stroke="#55C6FF" stroke-width="1.5" stroke-linecap="round" stroke-linejoin="round"/>
<path d="M2 9.5C2 5.63 5.13 2.5 9 2.5L7.95001 4.25" stroke="#55C6FF" stroke-width="1.5" stroke-linecap="round" stroke-linejoin="round"/>
</svg>
