<svg width="16" height="16" viewBox="0 0 16 16" fill="none" xmlns="http://www.w3.org/2000/svg">
<path d="M14.6668 6.99992V10.3333C14.6668 12.6666 13.3335 13.6666 11.3335 13.6666H4.66683C2.66683 13.6666 1.3335 12.6666 1.3335 10.3333V5.66659C1.3335 3.33325 2.66683 2.33325 4.66683 2.33325H9.3335" stroke="#135577" stroke-opacity="0.3" stroke-miterlimit="10" stroke-linecap="round" stroke-linejoin="round"/>
<path d="M4.6665 6L6.75317 7.66667C7.43984 8.21333 8.56651 8.21333 9.25317 7.66667L10.0398 7.04" stroke="#135577" stroke-opacity="0.3" stroke-miterlimit="10" stroke-linecap="round" stroke-linejoin="round"/>
<path d="M13.0002 5.33333C13.9206 5.33333 14.6668 4.58714 14.6668 3.66667C14.6668 2.74619 13.9206 2 13.0002 2C12.0797 2 11.3335 2.74619 11.3335 3.66667C11.3335 4.58714 12.0797 5.33333 13.0002 5.33333Z" stroke="#135577" stroke-opacity="0.3" stroke-miterlimit="10" stroke-linecap="round" stroke-linejoin="round"/>
</svg>
