<svg width="25" height="24" viewBox="0 0 25 24" fill="none" xmlns="http://www.w3.org/2000/svg">
<path d="M12.5 12C15.2614 12 17.5 9.76142 17.5 7C17.5 4.23858 15.2614 2 12.5 2C9.73858 2 7.5 4.23858 7.5 7C7.5 9.76142 9.73858 12 12.5 12Z" stroke="#0A3C55" stroke-width="1.5" stroke-linecap="round" stroke-linejoin="round"/>
<path d="M19.7091 15.74L16.169 19.2801C16.029 19.4201 15.8991 19.68 15.8691 19.87L15.6791 21.22C15.6091 21.71 15.9491 22.05 16.4391 21.98L17.789 21.79C17.979 21.76 18.2491 21.63 18.3791 21.49L21.919 17.95C22.529 17.34 22.819 16.63 21.919 15.73C21.029 14.84 20.3191 15.13 19.7091 15.74Z" stroke="#0A3C55" stroke-width="1.5" stroke-miterlimit="10" stroke-linecap="round" stroke-linejoin="round"/>
<path d="M19.1992 16.25C19.4992 17.33 20.3392 18.17 21.4192 18.47" stroke="#0A3C55" stroke-width="1.5" stroke-miterlimit="10" stroke-linecap="round" stroke-linejoin="round"/>
<path d="M3.91016 22C3.91016 18.13 7.76018 15 12.5002 15C13.5402 15 14.5402 15.15 15.4702 15.43" stroke="#0A3C55" stroke-width="1.5" stroke-linecap="round" stroke-linejoin="round"/>
</svg>
