<svg width="16" height="16" viewBox="0 0 16 16" fill="none" xmlns="http://www.w3.org/2000/svg">
<path fill-rule="evenodd" clip-rule="evenodd" d="M8 3.33329C8.3682 3.33329 8.66667 3.03481 8.66667 2.66663C8.66667 2.29844 8.3682 1.99996 8 1.99996C7.6318 1.99996 7.33333 2.29844 7.33333 2.66663C7.33333 3.03481 7.6318 3.33329 8 3.33329ZM8 8.66663C8.3682 8.66663 8.66667 8.36816 8.66667 7.99996C8.66667 7.63176 8.3682 7.33329 8 7.33329C7.6318 7.33329 7.33333 7.63176 7.33333 7.99996C7.33333 8.36816 7.6318 8.66663 8 8.66663ZM8 14C8.3682 14 8.66667 13.7015 8.66667 13.3333C8.66667 12.9651 8.3682 12.6666 8 12.6666C7.6318 12.6666 7.33333 12.9651 7.33333 13.3333C7.33333 13.7015 7.6318 14 8 14ZM10 2.66663C10 3.77119 9.1046 4.66663 8 4.66663C6.8954 4.66663 6 3.77119 6 2.66663C6 1.56206 6.8954 0.666626 8 0.666626C9.1046 0.666626 10 1.56206 10 2.66663ZM10 7.99996C10 9.10456 9.1046 9.99996 8 9.99996C6.8954 9.99996 6 9.10456 6 7.99996C6 6.89536 6.8954 5.99996 8 5.99996C9.1046 5.99996 10 6.89536 10 7.99996ZM8 15.3333C9.1046 15.3333 10 14.4379 10 13.3333C10 12.2287 9.1046 11.3333 8 11.3333C6.8954 11.3333 6 12.2287 6 13.3333C6 14.4379 6.8954 15.3333 8 15.3333Z" fill="#0A3C55"/>
</svg>
