<svg width="24" height="24" viewBox="0 0 24 24" fill="none" xmlns="http://www.w3.org/2000/svg">
<path d="M22 11.1V6.90003C22 3.40003 20.6 2.00003 17.1 2.00003H12.9C9.4 2.00003 8 3.40003 8 6.90003V8.00003H11.1C14.6 8.00003 16 9.40003 16 12.9V16H17.1C20.6 16 22 14.6 22 11.1Z" stroke="#0A3C55" stroke-width="1.5" stroke-linecap="round" stroke-linejoin="round"/>
<path d="M16 17.1V12.9C16 9.40003 14.6 8.00003 11.1 8.00003H6.9C3.4 8.00003 2 9.40003 2 12.9V17.1C2 20.6 3.4 22 6.9 22H11.1C14.6 22 16 20.6 16 17.1Z" stroke="#0A3C55" stroke-width="1.5" stroke-linecap="round" stroke-linejoin="round"/>
<path d="M6.08008 15L8.03008 16.95L11.9201 13.05" stroke="#0A3C55" stroke-width="1.5" stroke-linecap="round" stroke-linejoin="round"/>
</svg>
