<svg width="24" height="24" viewBox="0 0 24 24" fill="none" xmlns="http://www.w3.org/2000/svg">
<rect width="24" height="24" rx="4" fill="#55C6FF"/>
<path d="M10.0007 18.6666H14.0007C17.334 18.6666 18.6673 17.3333 18.6673 14V9.99998C18.6673 6.66665 17.334 5.33331 14.0007 5.33331H10.0007C6.66732 5.33331 5.33398 6.66665 5.33398 9.99998V14C5.33398 17.3333 6.66732 18.6666 10.0007 18.6666Z" stroke="white" stroke-width="1.5" stroke-linecap="round" stroke-linejoin="round"/>
<path d="M9.99935 10.6667C10.7357 10.6667 11.3327 10.0697 11.3327 9.33333C11.3327 8.59695 10.7357 8 9.99935 8C9.26297 8 8.66602 8.59695 8.66602 9.33333C8.66602 10.0697 9.26297 10.6667 9.99935 10.6667Z" stroke="white" stroke-width="1.5" stroke-linecap="round" stroke-linejoin="round"/>
<path d="M5.7793 16.6334L9.06596 14.4267C9.59263 14.0734 10.3526 14.1134 10.826 14.52L11.046 14.7134C11.566 15.16 12.406 15.16 12.926 14.7134L15.6993 12.3334C16.2193 11.8867 17.0593 11.8867 17.5793 12.3334L18.666 13.2667" stroke="white" stroke-width="1.5" stroke-linecap="round" stroke-linejoin="round"/>
</svg>
