<svg width="16" height="16" viewBox="0 0 16 16" fill="none" xmlns="http://www.w3.org/2000/svg">
<path d="M6.78515 11.8186C6.6644 11.6979 6.65441 11.5054 6.76202 11.3729L7.28985 10.7226C7.41446 10.569 7.64455 10.5571 7.78436 10.6969L7.87749 10.79C8.01732 10.9299 8.24745 10.9179 8.37204 10.7643L14.5714 3.12333C14.6873 2.98037 14.8973 2.9585 15.0402 3.07449L15.6873 3.59948C15.8303 3.71549 15.8521 3.92544 15.7361 4.0684L8.48679 12.9999C8.36219 13.1534 8.13212 13.1654 7.9923 13.0256L6.78515 11.8186Z" fill="#55C6FF"/>
<path d="M0.566402 9.93637L3.65616 13.0256C3.79598 13.1654 4.02605 13.1534 4.15065 12.9999L11.4 4.0684C11.516 3.92544 11.4942 3.71549 11.3512 3.59948L10.7041 3.07449C10.5611 2.9585 10.3512 2.98037 10.2352 3.12333L4.0359 10.7643C3.91131 10.9179 3.68118 10.9299 3.54135 10.79L1.62702 8.87571C1.49685 8.74554 1.28579 8.74554 1.15562 8.87571L0.566381 9.46495C0.436198 9.59513 0.436208 9.8062 0.566402 9.93637Z" fill="#55C6FF"/>
</svg>
