<svg width="16" height="16" viewBox="0 0 16 16" fill="none" xmlns="http://www.w3.org/2000/svg">
<path d="M7.82732 11.8333H11.774C11.714 11.8867 11.654 11.9333 11.594 11.9867L8.74731 14.12C7.80731 14.82 6.27399 14.82 5.32732 14.12L2.47399 11.9867C1.84732 11.52 1.33398 10.4867 1.33398 9.70666V4.76665C1.33398 3.95332 1.95399 3.05332 2.71399 2.76665L6.03399 1.51999C6.58065 1.31332 7.48732 1.31332 8.03399 1.51999L11.3473 2.76665C11.9807 3.00665 12.5207 3.67332 12.6873 4.35332H7.82065C7.67398 4.35332 7.54065 4.36 7.41398 4.36C6.18065 4.43333 5.86065 4.87999 5.86065 6.28665V9.90665C5.86731 11.44 6.26065 11.8333 7.82732 11.8333Z" stroke="#92DBFF" stroke-width="1.5" stroke-linecap="round" stroke-linejoin="round"/>
<path d="M5.86719 7.47998H14.6672" stroke="#92DBFF" stroke-width="1.5" stroke-miterlimit="10" stroke-linecap="round" stroke-linejoin="round"/>
<path d="M14.6672 6.27997V9.97996C14.6539 11.46 14.2472 11.8266 12.7072 11.8266H7.82719C6.26052 11.8266 5.86719 11.4333 5.86719 9.89329V6.2733C5.86719 4.8733 6.18719 4.42662 7.42052 4.34662C7.54719 4.34662 7.68052 4.33997 7.82719 4.33997H12.7072C14.2739 4.34663 14.6672 4.7333 14.6672 6.27997Z" stroke="#92DBFF" stroke-width="1.5" stroke-linecap="round" stroke-linejoin="round"/>
<path d="M7.54688 10.1733H8.43353" stroke="#92DBFF" stroke-width="1.5" stroke-miterlimit="10" stroke-linecap="round" stroke-linejoin="round"/>
<path d="M9.83398 10.1733H12.014" stroke="#92DBFF" stroke-width="1.5" stroke-miterlimit="10" stroke-linecap="round" stroke-linejoin="round"/>
</svg>
