<svg width="19" height="18" viewBox="0 0 19 18" fill="none" xmlns="http://www.w3.org/2000/svg">
<path d="M4.25 11.0625C3.11 11.0625 2.1875 10.14 2.1875 9C2.1875 7.86 3.11 6.9375 4.25 6.9375C5.39 6.9375 6.3125 7.86 6.3125 9C6.3125 10.14 5.39 11.0625 4.25 11.0625ZM4.25 8.0625C3.7325 8.0625 3.3125 8.4825 3.3125 9C3.3125 9.5175 3.7325 9.9375 4.25 9.9375C4.7675 9.9375 5.1875 9.5175 5.1875 9C5.1875 8.4825 4.7675 8.0625 4.25 8.0625Z" fill="#131415"/>
<path d="M14.75 11.0625C13.61 11.0625 12.6875 10.14 12.6875 9C12.6875 7.86 13.61 6.9375 14.75 6.9375C15.89 6.9375 16.8125 7.86 16.8125 9C16.8125 10.14 15.89 11.0625 14.75 11.0625ZM14.75 8.0625C14.2325 8.0625 13.8125 8.4825 13.8125 9C13.8125 9.5175 14.2325 9.9375 14.75 9.9375C15.2675 9.9375 15.6875 9.5175 15.6875 9C15.6875 8.4825 15.2675 8.0625 14.75 8.0625Z" fill="#131415"/>
<path d="M9.5 11.0625C8.36 11.0625 7.4375 10.14 7.4375 9C7.4375 7.86 8.36 6.9375 9.5 6.9375C10.64 6.9375 11.5625 7.86 11.5625 9C11.5625 10.14 10.64 11.0625 9.5 11.0625ZM9.5 8.0625C8.9825 8.0625 8.5625 8.4825 8.5625 9C8.5625 9.5175 8.9825 9.9375 9.5 9.9375C10.0175 9.9375 10.4375 9.5175 10.4375 9C10.4375 8.4825 10.0175 8.0625 9.5 8.0625Z" fill="#171717"/>
</svg>
