<svg width="18" height="14" viewBox="0 0 18 14" fill="none" xmlns="http://www.w3.org/2000/svg">
<path d="M6.81305 10.9375L0.487761 6.39572C0.339116 6.30741 0.215992 6.18196 0.130478 6.03169C0.0449644 5.88142 0 5.71149 0 5.53859C0 5.36569 0.0449644 5.19577 0.130478 5.04549C0.215992 4.89522 0.339116 4.76977 0.487761 4.68146L6.81305 0.136895C6.96383 0.0482075 7.13539 0.000993554 7.31032 4.50947e-05C7.48525 -0.000903365 7.65731 0.0444474 7.80905 0.131494C7.96078 0.218541 8.08678 0.344185 8.17426 0.495671C8.26174 0.647157 8.30758 0.819091 8.30713 0.994021V2.76782C10.3842 2.76782 16.6153 2.76782 18 13.8454C14.5383 7.61425 8.30713 8.3066 8.30713 8.3066V10.0804C8.30713 10.8558 7.46801 11.3238 6.81305 10.9389V10.9375Z" fill="#55C6FF"/>
</svg>
