<svg width="16" height="16" viewBox="0 0 16 16" fill="none" xmlns="http://www.w3.org/2000/svg">
<path d="M13.667 6.32455C14.667 6.32455 14.667 6.65789 14.667 7.32455V8.65789C14.667 9.32455 14.667 9.65789 13.667 9.65789" stroke="#848484" stroke-width="1.5" stroke-linecap="round" stroke-linejoin="round"/>
<path d="M4.25293 6.65787C4.47293 7.5312 4.47293 8.4512 4.25293 9.32453" stroke="#848484" stroke-width="1.5" stroke-linecap="round" stroke-linejoin="round"/>
<path d="M6.58691 6.65787C6.80691 7.5312 6.80691 8.4512 6.58691 9.32453" stroke="#848484" stroke-width="1.5" stroke-linecap="round" stroke-linejoin="round"/>
<path d="M8.66634 12.6579H4.66634C1.99967 12.6579 1.33301 11.9912 1.33301 9.32455V6.65789C1.33301 3.99122 1.99967 3.32455 4.66634 3.32455H8.66634C11.333 3.32455 11.9997 3.99122 11.9997 6.65789V9.32455C11.9997 11.9912 11.333 12.6579 8.66634 12.6579Z" stroke="#848484" stroke-width="1.5" stroke-linecap="round" stroke-linejoin="round"/>
</svg>
