<svg width="40" height="40" viewBox="0 0 40 40" fill="none" xmlns="http://www.w3.org/2000/svg">
<path d="M20.8327 36.6669H6.79938C4.86605 36.6669 3.28271 35.1169 3.28271 33.2169V8.48359C3.28271 4.11692 6.53271 2.13359 10.516 4.08359L17.916 7.71692C19.516 8.50026 20.8327 10.5836 20.8327 12.3503V36.6669Z" stroke="white" stroke-width="1.5" stroke-linecap="round" stroke-linejoin="round"/>
<path d="M36.6168 25.0995V31.3995C36.6168 34.9995 34.9502 36.6662 31.3502 36.6662H20.8335V17.3662L21.6168 17.5329L29.1168 19.2162L32.5002 19.9662C34.7002 20.4495 36.5002 21.5829 36.6002 24.7829C36.6168 24.8829 36.6168 24.9829 36.6168 25.0995Z" stroke="white" stroke-width="1.5" stroke-linecap="round" stroke-linejoin="round"/>
<path d="M9.1665 15H14.9498" stroke="white" stroke-width="1.5" stroke-linecap="round" stroke-linejoin="round"/>
<path d="M9.1665 21.667H14.9498" stroke="white" stroke-width="1.5" stroke-linecap="round" stroke-linejoin="round"/>
<path d="M29.1162 19.2175V24.5842C29.1162 26.6508 27.4329 28.3342 25.3662 28.3342C23.2995 28.3342 21.6162 26.6508 21.6162 24.5842V17.5342L29.1162 19.2175Z" stroke="white" stroke-width="1.5" stroke-linecap="round" stroke-linejoin="round"/>
<path d="M36.5995 24.7835C36.4995 26.7501 34.8662 28.3335 32.8662 28.3335C30.7995 28.3335 29.1162 26.6501 29.1162 24.5835V19.2168L32.4995 19.9668C34.6995 20.4501 36.4995 21.5835 36.5995 24.7835Z" stroke="white" stroke-width="1.5" stroke-linecap="round" stroke-linejoin="round"/>
</svg>
