<svg width="16" height="17" viewBox="0 0 16 17" fill="none" xmlns="http://www.w3.org/2000/svg">
<path d="M11.3335 9.41095V11.411C11.3335 14.0776 10.2668 15.1443 7.60016 15.1443H5.06683C2.40016 15.1443 1.3335 14.0776 1.3335 11.411V8.87762C1.3335 6.21095 2.40016 5.14429 5.06683 5.14429H7.06683" stroke="white" stroke-linecap="round" stroke-linejoin="round"/>
<path d="M11.3336 9.41095H9.20023C7.60023 9.41095 7.06689 8.87762 7.06689 7.27762V5.14429L11.3336 9.41095Z" stroke="white" stroke-linecap="round" stroke-linejoin="round"/>
<path d="M7.7334 1.81079H10.4001" stroke="white" stroke-linecap="round" stroke-linejoin="round"/>
<path d="M4.6665 3.81079C4.6665 2.70412 5.55984 1.81079 6.6665 1.81079H8.41317" stroke="white" stroke-linecap="round" stroke-linejoin="round"/>
<path d="M14.6668 5.81079V9.93746C14.6668 10.9708 13.8268 11.8108 12.7935 11.8108" stroke="white" stroke-linecap="round" stroke-linejoin="round"/>
<path d="M14.6665 5.81079H12.6665C11.1665 5.81079 10.6665 5.31079 10.6665 3.81079V1.81079L14.6665 5.81079Z" stroke="white" stroke-linecap="round" stroke-linejoin="round"/>
</svg>
