<svg width="16" height="17" viewBox="0 0 16 17" fill="none" xmlns="http://www.w3.org/2000/svg">
<path d="M7.3335 1.81079H6.00016C2.66683 1.81079 1.3335 3.14412 1.3335 6.47746V10.4775C1.3335 13.8108 2.66683 15.1441 6.00016 15.1441H10.0002C13.3335 15.1441 14.6668 13.8108 14.6668 10.4775V9.14412" stroke="white" stroke-linecap="round" stroke-linejoin="round"/>
<path d="M10.6933 2.4908L5.43992 7.74413C5.23992 7.94413 5.03992 8.33746 4.99992 8.62413L4.71325 10.6308C4.60659 11.3575 5.11992 11.8641 5.84659 11.7641L7.85325 11.4775C8.13325 11.4375 8.52659 11.2375 8.73325 11.0375L13.9866 5.78413C14.8933 4.87746 15.3199 3.82413 13.9866 2.4908C12.6533 1.15746 11.5999 1.58413 10.6933 2.4908Z" stroke="white" stroke-miterlimit="10" stroke-linecap="round" stroke-linejoin="round"/>
<path d="M9.93994 3.24414C10.3866 4.83747 11.6333 6.08414 13.2333 6.53747" stroke="white" stroke-miterlimit="10" stroke-linecap="round" stroke-linejoin="round"/>
</svg>
