<svg width="16" height="16" viewBox="0 0 16 16" fill="none" xmlns="http://www.w3.org/2000/svg">
<path d="M5.99984 6.66667C6.73622 6.66667 7.33317 6.06971 7.33317 5.33333C7.33317 4.59695 6.73622 4 5.99984 4C5.26346 4 4.6665 4.59695 4.6665 5.33333C4.6665 6.06971 5.26346 6.66667 5.99984 6.66667Z" stroke="white" stroke-width="1.5" stroke-linecap="round" stroke-linejoin="round"/>
<path d="M8.66683 1.33337H6.00016C2.66683 1.33337 1.3335 2.66671 1.3335 6.00004V10C1.3335 13.3334 2.66683 14.6667 6.00016 14.6667H10.0002C13.3335 14.6667 14.6668 13.3334 14.6668 10V6.66671" stroke="white" stroke-width="1.5" stroke-linecap="round" stroke-linejoin="round"/>
<path d="M10.5 3.33337H14.1667" stroke="white" stroke-width="1.5" stroke-linecap="round"/>
<path d="M12.3335 5.16667V1.5" stroke="white" stroke-width="1.5" stroke-linecap="round"/>
<path d="M1.77979 12.6333L5.06645 10.4266C5.59312 10.0733 6.35312 10.1133 6.82645 10.52L7.04645 10.7133C7.56645 11.16 8.40645 11.16 8.92645 10.7133L11.6998 8.33329C12.2198 7.88662 13.0598 7.88662 13.5798 8.33329L14.6665 9.26662" stroke="white" stroke-width="1.5" stroke-linecap="round" stroke-linejoin="round"/>
</svg>
