<svg width="40" height="40" viewBox="0 0 40 40" fill="none" xmlns="http://www.w3.org/2000/svg">
<path d="M20.0334 4.84961C14.5167 4.84961 10.0334 9.33294 10.0334 14.8496V19.6663C10.0334 20.6829 9.60002 22.2329 9.08336 23.0996L7.16669 26.2829C5.98336 28.2496 6.80002 30.4329 8.96669 31.1663C16.15 33.5663 23.9 33.5663 31.0834 31.1663C33.1 30.4996 33.9834 28.1163 32.8834 26.2829L30.9667 23.0996C30.4667 22.2329 30.0334 20.6829 30.0334 19.6663V14.8496C30.0334 9.34961 25.5334 4.84961 20.0334 4.84961Z" stroke="#2C7BF3" stroke-width="1.5" stroke-miterlimit="10" stroke-linecap="round"/>
<path d="M23.1166 5.3334C22.6 5.1834 22.0666 5.06673 21.5166 5.00007C19.9166 4.80007 18.3833 4.91673 16.95 5.3334C17.4333 4.10007 18.6333 3.2334 20.0333 3.2334C21.4333 3.2334 22.6333 4.10007 23.1166 5.3334Z" stroke="#2C7BF3" stroke-width="1.5" stroke-miterlimit="10" stroke-linecap="round" stroke-linejoin="round"/>
<path d="M25.0333 31.7666C25.0333 34.5166 22.7833 36.7666 20.0333 36.7666C18.6667 36.7666 17.4 36.1999 16.5 35.2999C15.6 34.3999 15.0333 33.1333 15.0333 31.7666" stroke="#2C7BF3" stroke-width="1.5" stroke-miterlimit="10"/>
</svg>
