<svg width="40" height="40" viewBox="0 0 40 40" fill="none" xmlns="http://www.w3.org/2000/svg">
<path d="M20.0332 4.84961C14.5166 4.84961 10.0332 9.33294 10.0332 14.8496V19.6663C10.0332 20.6829 9.5999 22.2329 9.08324 23.0996L7.16657 26.2829C5.98324 28.2496 6.7999 30.4329 8.96657 31.1663C16.1499 33.5663 23.8999 33.5663 31.0832 31.1663C33.0999 30.4996 33.9832 28.1163 32.8832 26.2829L30.9666 23.0996C30.4666 22.2329 30.0332 20.6829 30.0332 19.6663V14.8496C30.0332 9.34961 25.5332 4.84961 20.0332 4.84961Z" stroke="white" stroke-width="1.5" stroke-miterlimit="10" stroke-linecap="round"/>
<path d="M23.1166 5.3334C22.6 5.1834 22.0666 5.06673 21.5166 5.00007C19.9166 4.80007 18.3833 4.91673 16.95 5.3334C17.4333 4.10007 18.6333 3.2334 20.0333 3.2334C21.4333 3.2334 22.6333 4.10007 23.1166 5.3334Z" stroke="white" stroke-width="1.5" stroke-miterlimit="10" stroke-linecap="round" stroke-linejoin="round"/>
<path d="M25.0334 31.7666C25.0334 34.5166 22.7834 36.7666 20.0334 36.7666C18.6668 36.7666 17.4001 36.1999 16.5001 35.2999C15.6001 34.3999 15.0334 33.1333 15.0334 31.7666" stroke="white" stroke-width="1.5" stroke-miterlimit="10"/>
</svg>
