<svg width="17" height="17" viewBox="0 0 17 17" fill="none" xmlns="http://www.w3.org/2000/svg">
<path d="M9.67337 2.85562L10.8445 5.20338C11.0042 5.5302 11.4306 5.84393 11.7905 5.90427L13.9169 6.25959C15.2766 6.48753 15.5957 7.4745 14.6148 8.44691L12.9599 10.0987C12.6797 10.3784 12.5258 10.9183 12.6121 11.305L13.0836 13.3521C13.4554 14.9725 12.5948 15.5984 11.1622 14.7504L9.17002 13.5685C8.81022 13.3548 8.21689 13.3543 7.85002 13.5673L5.85559 14.7454C4.42813 15.5907 3.56205 14.9566 3.9369 13.3436L4.41214 11.2974C4.49917 10.9108 4.34634 10.3706 4.0666 10.0904L2.41482 8.4355C1.4424 7.46126 1.75665 6.47489 3.11686 6.24949L5.24386 5.89815C5.59725 5.83848 6.02421 5.52554 6.18451 5.19903L7.36004 2.85346C8.00123 1.58072 9.04123 1.5817 9.67337 2.85562Z" fill="#55C6FF" stroke="#55C6FF" stroke-width="1.5" stroke-linecap="round" stroke-linejoin="round"/>
</svg>
