<svg width="40" height="40" viewBox="0 0 40 40" fill="none" xmlns="http://www.w3.org/2000/svg">
<path d="M20 25C22.7614 25 25 22.7614 25 20C25 17.2386 22.7614 15 20 15C17.2386 15 15 17.2386 15 20C15 22.7614 17.2386 25 20 25Z" stroke="white" stroke-width="1.5" stroke-miterlimit="10" stroke-linecap="round" stroke-linejoin="round"/>
<path d="M3.3335 21.4677V18.5344C3.3335 16.801 4.75016 15.3677 6.50016 15.3677C9.51683 15.3677 10.7502 13.2344 9.2335 10.6177C8.36683 9.1177 8.8835 7.1677 10.4002 6.30103L13.2835 4.65103C14.6002 3.8677 16.3002 4.33437 17.0835 5.65103L17.2668 5.9677C18.7668 8.58437 21.2335 8.58437 22.7502 5.9677L22.9335 5.65103C23.7168 4.33437 25.4168 3.8677 26.7335 4.65103L29.6168 6.30103C31.1335 7.1677 31.6502 9.1177 30.7835 10.6177C29.2668 13.2344 30.5002 15.3677 33.5168 15.3677C35.2502 15.3677 36.6835 16.7844 36.6835 18.5344V21.4677C36.6835 23.201 35.2668 24.6344 33.5168 24.6344C30.5002 24.6344 29.2668 26.7677 30.7835 29.3844C31.6502 30.901 31.1335 32.8344 29.6168 33.701L26.7335 35.351C25.4168 36.1344 23.7168 35.6677 22.9335 34.351L22.7502 34.0344C21.2502 31.4177 18.7835 31.4177 17.2668 34.0344L17.0835 34.351C16.3002 35.6677 14.6002 36.1344 13.2835 35.351L10.4002 33.701C8.8835 32.8344 8.36683 30.8844 9.2335 29.3844C10.7502 26.7677 9.51683 24.6344 6.50016 24.6344C4.75016 24.6344 3.3335 23.201 3.3335 21.4677Z" stroke="white" stroke-width="1.5" stroke-miterlimit="10" stroke-linecap="round" stroke-linejoin="round"/>
</svg>
