<svg width="40" height="40" viewBox="0 0 40 40" fill="none" xmlns="http://www.w3.org/2000/svg">
<path d="M30.2333 36.0332C28.7666 36.4666 27.0333 36.6666 24.9999 36.6666H14.9999C12.9666 36.6666 11.2333 36.4666 9.7666 36.0332C10.1333 31.6999 14.5833 28.2832 19.9999 28.2832C25.4166 28.2832 29.8666 31.6999 30.2333 36.0332Z" stroke="white" stroke-width="1.5" stroke-linecap="round" stroke-linejoin="round"/>
<path d="M24.9999 3.33301H14.9999C6.66659 3.33301 3.33325 6.66634 3.33325 14.9997V24.9997C3.33325 31.2997 5.23325 34.7497 9.76659 36.033C10.1333 31.6997 14.5833 28.283 19.9999 28.283C25.4166 28.283 29.8666 31.6997 30.2333 36.033C34.7666 34.7497 36.6666 31.2997 36.6666 24.9997V14.9997C36.6666 6.66634 33.3333 3.33301 24.9999 3.33301ZM19.9999 23.6163C16.6999 23.6163 14.0332 20.933 14.0332 17.633C14.0332 14.333 16.6999 11.6663 19.9999 11.6663C23.2999 11.6663 25.9666 14.333 25.9666 17.633C25.9666 20.933 23.2999 23.6163 19.9999 23.6163Z" stroke="white" stroke-width="1.5" stroke-linecap="round" stroke-linejoin="round"/>
<path d="M25.9668 17.6337C25.9668 20.9337 23.3001 23.617 20.0001 23.617C16.7001 23.617 14.0334 20.9337 14.0334 17.6337C14.0334 14.3337 16.7001 11.667 20.0001 11.667C23.3001 11.667 25.9668 14.3337 25.9668 17.6337Z" stroke="white" stroke-width="1.5" stroke-linecap="round" stroke-linejoin="round"/>
</svg>
