<svg width="40" height="40" viewBox="0 0 40 40" fill="none" xmlns="http://www.w3.org/2000/svg">
<path d="M30.2333 36.0332C28.7666 36.4666 27.0333 36.6666 24.9999 36.6666H14.9999C12.9666 36.6666 11.2333 36.4666 9.7666 36.0332C10.1333 31.6999 14.5833 28.2832 19.9999 28.2832C25.4166 28.2832 29.8666 31.6999 30.2333 36.0332Z" stroke="#2C7BF3" stroke-width="1.5" stroke-linecap="round" stroke-linejoin="round"/>
<path d="M25.0002 3.33301H15.0002C6.66683 3.33301 3.3335 6.66634 3.3335 14.9997V24.9997C3.3335 31.2997 5.2335 34.7497 9.76683 36.033C10.1335 31.6997 14.5835 28.283 20.0002 28.283C25.4168 28.283 29.8668 31.6997 30.2335 36.033C34.7668 34.7497 36.6668 31.2997 36.6668 24.9997V14.9997C36.6668 6.66634 33.3335 3.33301 25.0002 3.33301ZM20.0002 23.6163C16.7002 23.6163 14.0335 20.933 14.0335 17.633C14.0335 14.333 16.7002 11.6663 20.0002 11.6663C23.3002 11.6663 25.9668 14.333 25.9668 17.633C25.9668 20.933 23.3002 23.6163 20.0002 23.6163Z" stroke="#2C7BF3" stroke-width="1.5" stroke-linecap="round" stroke-linejoin="round"/>
<path d="M25.9665 17.6337C25.9665 20.9337 23.2999 23.617 19.9999 23.617C16.6999 23.617 14.0332 20.9337 14.0332 17.6337C14.0332 14.3337 16.6999 11.667 19.9999 11.667C23.2999 11.667 25.9665 14.3337 25.9665 17.6337Z" stroke="#2C7BF3" stroke-width="1.5" stroke-linecap="round" stroke-linejoin="round"/>
</svg>
