<svg width="40" height="40" viewBox="0 0 40 40" fill="none" xmlns="http://www.w3.org/2000/svg">
<path d="M21.6666 15H11.6666" stroke="#2C7BF3" stroke-width="1.5" stroke-linecap="round" stroke-linejoin="round"/>
<path d="M36.6667 18.2829V21.7164C36.6667 22.633 35.9334 23.383 35 23.4163H31.7333C29.9333 23.4163 28.2834 22.0996 28.1334 20.2996C28.0334 19.2496 28.4333 18.2663 29.1333 17.583C29.75 16.9496 30.6 16.583 31.5333 16.583H35C35.9334 16.6163 36.6667 17.3663 36.6667 18.2829Z" stroke="#2C7BF3" stroke-width="1.5" stroke-linecap="round" stroke-linejoin="round"/>
<path d="M29.1333 17.583C28.4333 18.2663 28.0334 19.2497 28.1334 20.2997C28.2834 22.0997 29.9333 23.4163 31.7333 23.4163H35V25.833C35 30.833 31.6667 34.1663 26.6667 34.1663H11.6667C6.66671 34.1663 3.33337 30.833 3.33337 25.833V14.1663C3.33337 9.63301 6.06671 6.46634 10.3167 5.933C10.75 5.86634 11.2 5.83301 11.6667 5.83301H26.6667C27.1 5.83301 27.5167 5.84965 27.9167 5.91632C32.2167 6.41632 35 9.59967 35 14.1663V16.583H31.5333C30.6 16.583 29.75 16.9497 29.1333 17.583Z" stroke="#2C7BF3" stroke-width="1.5" stroke-linecap="round" stroke-linejoin="round"/>
</svg>
