<svg width="40" height="40" viewBox="0 0 40 40" fill="none" xmlns="http://www.w3.org/2000/svg">
<path d="M21.6667 15H11.6667" stroke="#929393" stroke-width="1.5" stroke-linecap="round" stroke-linejoin="round"/>
<path d="M36.6667 18.2829V21.7164C36.6667 22.633 35.9334 23.383 35 23.4163H31.7333C29.9333 23.4163 28.2834 22.0996 28.1334 20.2996C28.0334 19.2496 28.4333 18.2663 29.1333 17.583C29.75 16.9496 30.6 16.583 31.5333 16.583H35C35.9334 16.6163 36.6667 17.3663 36.6667 18.2829Z" stroke="#929393" stroke-width="1.5" stroke-linecap="round" stroke-linejoin="round"/>
<path d="M29.1332 17.583C28.4332 18.2663 28.0333 19.2497 28.1333 20.2997C28.2833 22.0997 29.9332 23.4163 31.7332 23.4163H34.9999V25.833C34.9999 30.833 31.6666 34.1663 26.6666 34.1663H11.6666C6.66659 34.1663 3.33325 30.833 3.33325 25.833V14.1663C3.33325 9.63301 6.06659 6.46634 10.3166 5.933C10.7499 5.86634 11.1999 5.83301 11.6666 5.83301H26.6666C27.0999 5.83301 27.5166 5.84965 27.9166 5.91632C32.2166 6.41632 34.9999 9.59967 34.9999 14.1663V16.583H31.5332C30.5999 16.583 29.7499 16.9497 29.1332 17.583Z" stroke="#929393" stroke-width="1.5" stroke-linecap="round" stroke-linejoin="round"/>
</svg>
