<svg width="26" height="26" viewBox="0 0 26 26" fill="none" xmlns="http://www.w3.org/2000/svg">
<path d="M19.3399 15.99L18.3399 14.33C18.1299 13.96 17.9399 13.26 17.9399 12.85V10.32C17.9399 7.97 16.5599 5.94 14.5699 4.99C14.0499 4.07 13.0899 3.5 11.9899 3.5C10.8999 3.5 9.91994 4.09 9.39994 5.02C7.44994 5.99 6.09994 8 6.09994 10.32V12.85C6.09994 13.26 5.90994 13.96 5.69994 14.32L4.68994 15.99C4.28994 16.66 4.19994 17.4 4.44994 18.08C4.68994 18.75 5.25994 19.27 5.99994 19.52C7.93994 20.18 9.97994 20.5 12.0199 20.5C14.0599 20.5 16.0999 20.18 18.0399 19.53C18.7399 19.3 19.2799 18.77 19.5399 18.08C19.7999 17.39 19.7299 16.63 19.3399 15.99Z" fill="#55C6FF"/>
<path d="M14.8297 21.51C14.4097 22.67 13.2997 23.5 11.9997 23.5C11.2097 23.5 10.4297 23.18 9.87969 22.61C9.55969 22.31 9.31969 21.91 9.17969 21.5C9.30969 21.52 9.43969 21.53 9.57969 21.55C9.80969 21.58 10.0497 21.61 10.2897 21.63C10.8597 21.68 11.4397 21.71 12.0197 21.71C12.5897 21.71 13.1597 21.68 13.7197 21.63C13.9297 21.61 14.1397 21.6 14.3397 21.57C14.4997 21.55 14.6597 21.53 14.8297 21.51Z" fill="#55C6FF"/>
<circle cx="20" cy="6.5" r="5.5" fill="#FD4FCC" stroke="white"/>
</svg>
