<svg width="16" height="16" viewBox="0 0 16 16" fill="none" xmlns="http://www.w3.org/2000/svg">
<path d="M13.3334 5.50004V12C13.3334 14 12.1401 14.6667 10.6667 14.6667H5.33341C3.86008 14.6667 2.66675 14 2.66675 12V5.50004C2.66675 3.33337 3.86008 2.83337 5.33341 2.83337C5.33341 3.24671 5.50006 3.62004 5.7734 3.89337C6.04673 4.1667 6.42008 4.33337 6.83341 4.33337H9.16675C9.99341 4.33337 10.6667 3.66004 10.6667 2.83337C12.1401 2.83337 13.3334 3.33337 13.3334 5.50004Z" stroke="#0A3C55" stroke-linecap="round" stroke-linejoin="round"/>
<path d="M10.6666 2.83337C10.6666 3.66004 9.99325 4.33337 9.16659 4.33337H6.83325C6.41992 4.33337 6.04657 4.1667 5.77323 3.89337C5.4999 3.62004 5.33325 3.24671 5.33325 2.83337C5.33325 2.00671 6.00659 1.33337 6.83325 1.33337H9.16659C9.57992 1.33337 9.95327 1.50004 10.2266 1.77338C10.4999 2.04671 10.6666 2.42004 10.6666 2.83337Z" stroke="#0A3C55" stroke-linecap="round" stroke-linejoin="round"/>
<path d="M5.33325 8.66663H7.99992" stroke="#0A3C55" stroke-linecap="round" stroke-linejoin="round"/>
<path d="M5.33325 11.3334H10.6666" stroke="#0A3C55" stroke-linecap="round" stroke-linejoin="round"/>
</svg>
