<svg width="25" height="25" viewBox="0 0 25 25" fill="none" xmlns="http://www.w3.org/2000/svg">
<path d="M8.66 7.15002H16.33C16.97 7.15002 17.49 7.67002 17.49 8.31002V9.59002C17.49 10.06 17.2 10.64 16.91 10.93L14.41 13.14C14.06 13.43 13.83 14.01 13.83 14.48V16.98C13.83 17.33 13.6 17.79 13.31 17.97L12.5 18.48C11.74 18.95 10.7 18.42 10.7 17.49V14.41C10.7 14 10.47 13.48 10.23 13.19L8.02 10.86C7.73 10.58 7.5 10.05 7.5 9.70002V8.37002C7.5 7.67002 8.02 7.15002 8.66 7.15002Z" stroke="#0A3C55" stroke-width="1.5" stroke-miterlimit="10" stroke-linecap="round" stroke-linejoin="round"/>
<path d="M9.5 22.5H15.5C20.5 22.5 22.5 20.5 22.5 15.5V9.5C22.5 4.5 20.5 2.5 15.5 2.5H9.5C4.5 2.5 2.5 4.5 2.5 9.5V15.5C2.5 20.5 4.5 22.5 9.5 22.5Z" stroke="#0A3C55" stroke-width="1.5" stroke-linecap="round" stroke-linejoin="round"/>
</svg>
