<svg width="25" height="25" viewBox="0 0 25 25" fill="none" xmlns="http://www.w3.org/2000/svg">
<path d="M9.5 22.5148H15.5C20.5 22.5148 22.5 20.5148 22.5 15.5148V9.51477C22.5 4.51477 20.5 2.51477 15.5 2.51477H9.5C4.5 2.51477 2.5 4.51477 2.5 9.51477V15.5148C2.5 20.5148 4.5 22.5148 9.5 22.5148Z" stroke="#0A3C55" stroke-width="1.5" stroke-linecap="round" stroke-linejoin="round"/>
<path d="M16 19.0148C17.1 19.0148 18 18.1148 18 17.0148V8.01477C18 6.91477 17.1 6.01477 16 6.01477C14.9 6.01477 14 6.91477 14 8.01477V17.0148C14 18.1148 14.89 19.0148 16 19.0148Z" stroke="#0A3C55" stroke-width="1.5" stroke-linecap="round" stroke-linejoin="round"/>
<path d="M9 19.0148C10.1 19.0148 11 18.1148 11 17.0148V13.5148C11 12.4148 10.1 11.5148 9 11.5148C7.9 11.5148 7 12.4148 7 13.5148V17.0148C7 18.1148 7.89 19.0148 9 19.0148Z" stroke="#0A3C55" stroke-width="1.5" stroke-linecap="round" stroke-linejoin="round"/>
</svg>
